<mxfile host="app.diagrams.net" agent="Mozilla/5.0 (Windows NT 10.0; Win64; x64) AppleWebKit/537.36 (KHTML, like Gecko) Chrome/140.0.0.0 Safari/537.36 Edg/140.0.0.0" version="28.2.5">
  <diagram name="Trang-1" id="HLXsYtgSmgHab9l00wdj">
    <mxGraphModel dx="1459" dy="566" grid="1" gridSize="10" guides="1" tooltips="1" connect="1" arrows="1" fold="1" page="1" pageScale="1" pageWidth="827" pageHeight="1169" math="0" shadow="0">
      <root>
        <mxCell id="0" />
        <mxCell id="1" parent="0" />
        <mxCell id="bMwNmMN3bY0BxYYFCedj-3" value="" style="edgeStyle=orthogonalEdgeStyle;rounded=0;orthogonalLoop=1;jettySize=auto;html=1;" edge="1" parent="1" source="bMwNmMN3bY0BxYYFCedj-1" target="bMwNmMN3bY0BxYYFCedj-2">
          <mxGeometry relative="1" as="geometry" />
        </mxCell>
        <mxCell id="bMwNmMN3bY0BxYYFCedj-1" value="0" style="ellipse;whiteSpace=wrap;html=1;aspect=fixed;" vertex="1" parent="1">
          <mxGeometry x="280" y="40" width="80" height="80" as="geometry" />
        </mxCell>
        <mxCell id="bMwNmMN3bY0BxYYFCedj-5" value="" style="edgeStyle=orthogonalEdgeStyle;rounded=0;orthogonalLoop=1;jettySize=auto;html=1;" edge="1" parent="1" source="bMwNmMN3bY0BxYYFCedj-29" target="bMwNmMN3bY0BxYYFCedj-4">
          <mxGeometry relative="1" as="geometry" />
        </mxCell>
        <mxCell id="bMwNmMN3bY0BxYYFCedj-11" style="edgeStyle=orthogonalEdgeStyle;rounded=0;orthogonalLoop=1;jettySize=auto;html=1;entryX=1;entryY=0.5;entryDx=0;entryDy=0;" edge="1" parent="1" source="bMwNmMN3bY0BxYYFCedj-2" target="bMwNmMN3bY0BxYYFCedj-6">
          <mxGeometry relative="1" as="geometry" />
        </mxCell>
        <mxCell id="bMwNmMN3bY0BxYYFCedj-2" value="1" style="ellipse;whiteSpace=wrap;html=1;aspect=fixed;" vertex="1" parent="1">
          <mxGeometry x="280" y="200" width="80" height="80" as="geometry" />
        </mxCell>
        <mxCell id="bMwNmMN3bY0BxYYFCedj-9" value="" style="edgeStyle=orthogonalEdgeStyle;rounded=0;orthogonalLoop=1;jettySize=auto;html=1;" edge="1" parent="1" source="bMwNmMN3bY0BxYYFCedj-32" target="bMwNmMN3bY0BxYYFCedj-8">
          <mxGeometry relative="1" as="geometry" />
        </mxCell>
        <mxCell id="bMwNmMN3bY0BxYYFCedj-34" style="edgeStyle=orthogonalEdgeStyle;rounded=0;orthogonalLoop=1;jettySize=auto;html=1;entryX=0.5;entryY=0;entryDx=0;entryDy=0;" edge="1" parent="1" source="bMwNmMN3bY0BxYYFCedj-36" target="bMwNmMN3bY0BxYYFCedj-6">
          <mxGeometry relative="1" as="geometry" />
        </mxCell>
        <mxCell id="bMwNmMN3bY0BxYYFCedj-4" value="2" style="ellipse;whiteSpace=wrap;html=1;aspect=fixed;" vertex="1" parent="1">
          <mxGeometry x="120" y="320" width="80" height="80" as="geometry" />
        </mxCell>
        <mxCell id="bMwNmMN3bY0BxYYFCedj-13" value="" style="edgeStyle=orthogonalEdgeStyle;rounded=0;orthogonalLoop=1;jettySize=auto;html=1;" edge="1" parent="1" source="bMwNmMN3bY0BxYYFCedj-6" target="bMwNmMN3bY0BxYYFCedj-12">
          <mxGeometry relative="1" as="geometry" />
        </mxCell>
        <mxCell id="bMwNmMN3bY0BxYYFCedj-15" value="" style="edgeStyle=orthogonalEdgeStyle;rounded=0;orthogonalLoop=1;jettySize=auto;html=1;entryX=0.5;entryY=0;entryDx=0;entryDy=0;" edge="1" parent="1" source="bMwNmMN3bY0BxYYFCedj-6" target="bMwNmMN3bY0BxYYFCedj-14">
          <mxGeometry relative="1" as="geometry">
            <mxPoint x="120" y="591" as="targetPoint" />
            <Array as="points">
              <mxPoint x="290" y="530" />
              <mxPoint x="110" y="530" />
            </Array>
          </mxGeometry>
        </mxCell>
        <mxCell id="bMwNmMN3bY0BxYYFCedj-6" value="3" style="ellipse;whiteSpace=wrap;html=1;aspect=fixed;" vertex="1" parent="1">
          <mxGeometry x="250" y="430" width="80" height="80" as="geometry" />
        </mxCell>
        <mxCell id="bMwNmMN3bY0BxYYFCedj-8" value="2" style="ellipse;whiteSpace=wrap;html=1;aspect=fixed;" vertex="1" parent="1">
          <mxGeometry x="-20" y="430" width="80" height="80" as="geometry" />
        </mxCell>
        <mxCell id="bMwNmMN3bY0BxYYFCedj-10" style="edgeStyle=orthogonalEdgeStyle;rounded=0;orthogonalLoop=1;jettySize=auto;html=1;entryX=-0.02;entryY=0.623;entryDx=0;entryDy=0;entryPerimeter=0;" edge="1" parent="1" source="bMwNmMN3bY0BxYYFCedj-8" target="bMwNmMN3bY0BxYYFCedj-6">
          <mxGeometry relative="1" as="geometry">
            <Array as="points">
              <mxPoint x="120" y="480" />
              <mxPoint x="120" y="480" />
            </Array>
          </mxGeometry>
        </mxCell>
        <mxCell id="bMwNmMN3bY0BxYYFCedj-16" style="edgeStyle=orthogonalEdgeStyle;rounded=0;orthogonalLoop=1;jettySize=auto;html=1;entryX=1;entryY=0.5;entryDx=0;entryDy=0;" edge="1" parent="1" source="bMwNmMN3bY0BxYYFCedj-40" target="bMwNmMN3bY0BxYYFCedj-14">
          <mxGeometry relative="1" as="geometry" />
        </mxCell>
        <mxCell id="bMwNmMN3bY0BxYYFCedj-18" value="" style="edgeStyle=orthogonalEdgeStyle;rounded=0;orthogonalLoop=1;jettySize=auto;html=1;" edge="1" parent="1" source="bMwNmMN3bY0BxYYFCedj-12" target="bMwNmMN3bY0BxYYFCedj-17">
          <mxGeometry relative="1" as="geometry" />
        </mxCell>
        <mxCell id="bMwNmMN3bY0BxYYFCedj-12" value="4" style="ellipse;whiteSpace=wrap;html=1;aspect=fixed;" vertex="1" parent="1">
          <mxGeometry x="250" y="590" width="80" height="80" as="geometry" />
        </mxCell>
        <mxCell id="bMwNmMN3bY0BxYYFCedj-14" value="4" style="ellipse;whiteSpace=wrap;html=1;aspect=fixed;" vertex="1" parent="1">
          <mxGeometry x="70" y="590" width="80" height="80" as="geometry" />
        </mxCell>
        <mxCell id="bMwNmMN3bY0BxYYFCedj-17" value="5" style="ellipse;whiteSpace=wrap;html=1;aspect=fixed;" vertex="1" parent="1">
          <mxGeometry x="250" y="750" width="80" height="80" as="geometry" />
        </mxCell>
        <mxCell id="bMwNmMN3bY0BxYYFCedj-19" style="edgeStyle=orthogonalEdgeStyle;rounded=0;orthogonalLoop=1;jettySize=auto;html=1;entryX=-0.03;entryY=0.588;entryDx=0;entryDy=0;entryPerimeter=0;" edge="1" parent="1" source="bMwNmMN3bY0BxYYFCedj-14" target="bMwNmMN3bY0BxYYFCedj-17">
          <mxGeometry relative="1" as="geometry">
            <Array as="points">
              <mxPoint x="110" y="797" />
            </Array>
          </mxGeometry>
        </mxCell>
        <mxCell id="bMwNmMN3bY0BxYYFCedj-23" value="Code1(a,b,x)" style="text;html=1;align=center;verticalAlign=middle;whiteSpace=wrap;rounded=0;" vertex="1" parent="1">
          <mxGeometry x="370" y="65" width="60" height="30" as="geometry" />
        </mxCell>
        <mxCell id="bMwNmMN3bY0BxYYFCedj-24" value="if" style="text;html=1;align=center;verticalAlign=middle;whiteSpace=wrap;rounded=0;" vertex="1" parent="1">
          <mxGeometry x="290" y="200" width="60" height="30" as="geometry" />
        </mxCell>
        <mxCell id="bMwNmMN3bY0BxYYFCedj-26" value="if" style="text;html=1;align=center;verticalAlign=middle;whiteSpace=wrap;rounded=0;" vertex="1" parent="1">
          <mxGeometry x="260" y="440" width="60" height="30" as="geometry" />
        </mxCell>
        <mxCell id="bMwNmMN3bY0BxYYFCedj-30" value="" style="edgeStyle=orthogonalEdgeStyle;rounded=0;orthogonalLoop=1;jettySize=auto;html=1;" edge="1" parent="1" source="bMwNmMN3bY0BxYYFCedj-2" target="bMwNmMN3bY0BxYYFCedj-29">
          <mxGeometry relative="1" as="geometry">
            <mxPoint x="280" y="240" as="sourcePoint" />
            <mxPoint x="160" y="320" as="targetPoint" />
          </mxGeometry>
        </mxCell>
        <mxCell id="bMwNmMN3bY0BxYYFCedj-29" value="a&amp;gt;1" style="text;html=1;align=center;verticalAlign=middle;whiteSpace=wrap;rounded=0;" vertex="1" parent="1">
          <mxGeometry x="130" y="260" width="60" height="30" as="geometry" />
        </mxCell>
        <mxCell id="bMwNmMN3bY0BxYYFCedj-31" value="" style="edgeStyle=orthogonalEdgeStyle;rounded=0;orthogonalLoop=1;jettySize=auto;html=1;" edge="1" parent="1" source="bMwNmMN3bY0BxYYFCedj-4" target="bMwNmMN3bY0BxYYFCedj-32">
          <mxGeometry relative="1" as="geometry">
            <mxPoint x="120" y="360" as="sourcePoint" />
            <mxPoint x="20" y="430" as="targetPoint" />
          </mxGeometry>
        </mxCell>
        <mxCell id="bMwNmMN3bY0BxYYFCedj-32" value="b==0" style="text;html=1;align=center;verticalAlign=middle;whiteSpace=wrap;rounded=0;" vertex="1" parent="1">
          <mxGeometry x="-10" y="340" width="60" height="30" as="geometry" />
        </mxCell>
        <mxCell id="bMwNmMN3bY0BxYYFCedj-35" value="" style="edgeStyle=orthogonalEdgeStyle;rounded=0;orthogonalLoop=1;jettySize=auto;html=1;entryX=0.5;entryY=0;entryDx=0;entryDy=0;" edge="1" parent="1" source="bMwNmMN3bY0BxYYFCedj-4" target="bMwNmMN3bY0BxYYFCedj-36">
          <mxGeometry relative="1" as="geometry">
            <mxPoint x="200" y="360" as="sourcePoint" />
            <mxPoint x="290" y="430" as="targetPoint" />
          </mxGeometry>
        </mxCell>
        <mxCell id="bMwNmMN3bY0BxYYFCedj-36" value="b!=0" style="text;html=1;align=center;verticalAlign=middle;whiteSpace=wrap;rounded=0;" vertex="1" parent="1">
          <mxGeometry x="220" y="345" width="60" height="30" as="geometry" />
        </mxCell>
        <mxCell id="bMwNmMN3bY0BxYYFCedj-37" value="x=x/a" style="text;html=1;align=center;verticalAlign=middle;whiteSpace=wrap;rounded=0;" vertex="1" parent="1">
          <mxGeometry x="-90" y="460" width="60" height="30" as="geometry" />
        </mxCell>
        <mxCell id="bMwNmMN3bY0BxYYFCedj-38" value="a==2" style="text;html=1;align=center;verticalAlign=middle;whiteSpace=wrap;rounded=0;" vertex="1" parent="1">
          <mxGeometry x="130" y="510" width="60" height="30" as="geometry" />
        </mxCell>
        <mxCell id="bMwNmMN3bY0BxYYFCedj-39" value="a!=2" style="text;html=1;align=center;verticalAlign=middle;whiteSpace=wrap;rounded=0;" vertex="1" parent="1">
          <mxGeometry x="290" y="550" width="60" height="30" as="geometry" />
        </mxCell>
        <mxCell id="bMwNmMN3bY0BxYYFCedj-41" value="" style="edgeStyle=orthogonalEdgeStyle;rounded=0;orthogonalLoop=1;jettySize=auto;html=1;entryX=1;entryY=0.5;entryDx=0;entryDy=0;" edge="1" parent="1" source="bMwNmMN3bY0BxYYFCedj-12" target="bMwNmMN3bY0BxYYFCedj-40">
          <mxGeometry relative="1" as="geometry">
            <mxPoint x="250" y="630" as="sourcePoint" />
            <mxPoint x="150" y="630" as="targetPoint" />
          </mxGeometry>
        </mxCell>
        <mxCell id="bMwNmMN3bY0BxYYFCedj-40" value="x&amp;gt;1" style="text;html=1;align=center;verticalAlign=middle;whiteSpace=wrap;rounded=0;" vertex="1" parent="1">
          <mxGeometry x="170" y="600" width="60" height="30" as="geometry" />
        </mxCell>
        <mxCell id="bMwNmMN3bY0BxYYFCedj-42" value="x&amp;lt;=1" style="text;html=1;align=center;verticalAlign=middle;whiteSpace=wrap;rounded=0;" vertex="1" parent="1">
          <mxGeometry x="300" y="700" width="60" height="30" as="geometry" />
        </mxCell>
        <mxCell id="bMwNmMN3bY0BxYYFCedj-43" value="x+=1" style="text;html=1;align=center;verticalAlign=middle;whiteSpace=wrap;rounded=0;" vertex="1" parent="1">
          <mxGeometry x="-10" y="630" width="60" height="30" as="geometry" />
        </mxCell>
      </root>
    </mxGraphModel>
  </diagram>
</mxfile>
